Motion_pu04
version=1
nRows=6
nColumns=43
inDegrees=yes
endheader
time	pelvis_tilt	pelvis_list	pelvis_rotation	pelvis_tx	pelvis_ty	pelvis_tz	hip_flexion_r	hip_adduction_r	hip_rotation_r	knee_angle_r	ankle_angle_r	subtalar_angle_r	mtp_angle_r	hip_flexion_l	hip_adduction_l	hip_rotation_l	knee_angle_l	ankle_angle_l	subtalar_angle_l	mtp_angle_l	lumbar_extension	lumbar_bending	lumbar_rotation	neck_flexion	neck_lateral_bending	neck_rotation	arm_flex_r	arm_add_r	arm_rot_r	elbow_flex_r	pro_sup_r	wrist_flex_r	wrist_dev_r	hand_finger_flex_r	arm_flex_l	arm_add_l	arm_rot_l	elbow_flex_l	pro_sup_l	wrist_flex_l	wrist_dev_l	hand_finger_flex_l
      0.00250000	      1.95939732	      2.72270767	    -86.52215961	     -0.05661802	      0.94756670	      0.64574654	     -4.97239093	     -6.84483944	     -8.71621057	     -5.80824706	     12.26089444	      8.31072284	      7.12728264	     16.99992312	     -6.93008421	     -6.31708149	    -35.51876372	      5.35434746	     16.54345741	     10.89318369	     -8.27919062	     -1.03979323	      7.28641210	     35.28171681	     -9.01414322	     -9.02310764	    -38.83374558	   -137.80296558	   -127.41765979	     65.96140018	    120.07555723	     -3.16693641	     -5.18629972	    -27.49125044	    130.01129113	    -29.19080563	     41.52183240	     52.68401901	    124.60554353	    -22.04707714	      3.45568599	    -16.00061160
      0.00500000	      1.92729331	      2.94767274	    -86.55871367	     -0.05688840	      0.94751796	      0.64733637	     -4.94946242	     -6.76604812	     -8.82360693	     -5.58558669	     12.31204330	      8.28284589	      7.15906461	     17.09751294	     -6.95301711	     -6.55562771	    -35.45163454	      5.28894720	     16.47318936	     10.96724223	     -7.95088071	     -1.03185529	      7.28829846	     35.41593759	     -8.58822899	     -9.08407152	    -38.81422992	   -138.20177811	   -127.45522231	     65.50934837	    120.25208812	     -3.12523124	     -5.08458456	    -27.66716946	    130.02569798	    -29.00510457	     41.36918335	     52.50343611	    124.60839569	    -21.88401001	      3.40732379	    -16.12921065
      0.00750000	      1.89406679	      3.02898582	    -86.57458912	     -0.05704521	      0.94775875	      0.64936105	     -4.98821368	     -6.73309237	     -8.83478391	     -5.58875673	     12.28994176	      8.28677708	      7.16161590	     17.05327852	     -6.95046360	     -6.58568389	    -35.43540134	      5.25723305	     16.46337159	     10.97957199	     -7.77298911	     -1.08775937	      7.27890150	     35.44140939	     -8.56468098	     -9.08192571	    -38.77697084	   -138.35991215	   -127.44553309	     65.27149348	    120.28976900	     -3.10021544	     -5.04999939	    -27.69593078	    130.14212940	    -28.75153901	     41.37922037	     52.53558513	    124.61658739	    -21.84107817	      3.38067780	    -16.15140118
      0.01000000	      1.92595178	      3.32621949	    -86.62260399	     -0.05730328	      0.94729272	      0.65086025	     -4.85487699	     -6.73236476	     -8.92676530	     -5.35930167	     12.19615099	      8.29595196	      7.17671641	     17.13584051	     -6.91116245	     -6.80789792	    -35.18023358	      5.10943140	     16.41111653	     11.04936679	     -7.39659319	     -1.12294441	      7.31570239	     35.54408505	     -8.45027079	     -9.06624483	    -38.56759125	   -138.84642979	   -127.36084439	     64.71256792	    120.51305314	     -2.92459834	     -4.94685090	    -27.83997869	    130.39303683	    -28.48418705	     41.41561835	     51.81828470	    124.64014129	    -21.48568602	      3.42168868	    -16.24102922
      0.01250000	      1.91182183	      3.38364747	    -86.61968441	     -0.05722847	      0.94776039	      0.65251267	     -4.91230443	     -6.67168272	     -8.92697707	     -5.39175957	     12.18205516	      8.30102931	      7.17681668	     17.09763899	     -6.87384517	     -6.82119028	    -35.18942649	      5.09579732	     16.40949286	     11.05223987	     -7.28680143	     -1.16989379	      7.33265769	     35.55640721	     -8.44658747	     -9.06512981	    -38.48522728	   -139.00685108	   -127.39809898	     64.64818145	    120.52462520	     -2.91599616	     -4.93687187	    -27.84683963	    130.44341794	    -28.28443897	     41.44839212	     51.87905674	    124.64702289	    -21.47012890	      3.40072258	    -16.24598008
      0.01500000	      1.96322542	      3.65627557	    -86.70175656	     -0.05751539	      0.94722699	      0.65392275	     -4.77563439	     -6.74205271	     -9.02281974	     -5.18826106	     12.06265288	      8.31584728	      7.18600128	     17.17769631	     -6.82827934	     -7.04516934	    -34.96635641	      4.98838383	     16.31475128	     11.11527414	     -6.93981066	     -1.22614528	      7.40659122	     35.70990614	     -8.37351975	     -9.05681703	    -38.27940767	   -139.57156033	   -127.36528454	     63.74893979	    120.74331948	     -2.62464234	     -4.82728819	    -27.92788404	    130.77776132	    -27.88870964	     41.54363124	     51.04049019	    124.68553750	    -21.08580827	      3.47904212	    -16.30499157
